<svg xmlns="http://www.w3.org/2000/svg" width="229" height="152.856" viewBox="0 0 229 152.856">
  <g id="Group_37" data-name="Group 37" transform="translate(-140 -45.572)">
    <g id="Logo" transform="translate(140 45.572)">
      <g id="Artwork_1" data-name="Artwork 1" transform="translate(114 59.928)">
        <g id="Group_1" data-name="Group 1" transform="translate(-114 -59.928)">
          <path id="Path_1" data-name="Path 1" d="M476.339,207.541c3.344,3.623-2.808,10.687-5.272,13.5a64.014,64.014,0,0,1-12.926,10.725c-19.891,13.026-50,13.171-64.1-7.817-6.207-9.227-4.984-21.853,1.992-30.311,2.1-2.771,6.774-6.276,9.88-3.5,2.254,2.341,2.177,5.453,2.89,8.865a27.865,27.865,0,0,0,2.147,7.335c9.78,18.685,35.19,7.869,50.938,2.455,3.98-1.246,10.875-4.181,14.414-1.289Z" transform="translate(-252.358 -122.37)" fill="#0964cf"/>
          <path id="Path_2" data-name="Path 2" d="M9.6,211.649c-3.345,3.623,2.807,10.687,5.272,13.5A64.037,64.037,0,0,0,27.8,235.874c19.891,13.026,50,13.171,64.1-7.817,6.207-9.228,4.984-21.853-1.992-30.311-2.1-2.771-6.774-6.276-9.88-3.5-2.254,2.341-2.177,5.452-2.89,8.865a27.867,27.867,0,0,1-2.147,7.335c-9.779,18.684-35.19,7.869-50.938,2.454-3.98-1.246-10.876-4.181-14.414-1.288Z" transform="translate(-5.584 -125.028)" fill="#feaa00"/>
          <path id="Path_3" data-name="Path 3" d="M286.1,234.481c2.562,2.832,1.342,8.055-.586,11.452A31.792,31.792,0,0,1,274.756,257.1c-13.455,8.63-30.418,9.973-45.678,5.679-10.516-3.043-18.639-7.874-23.763-16.327-1.777-2.978-3.074-7.29-2.066-10.465a5.579,5.579,0,0,1,5.6-3.925c6.615.034,12.632,4.861,18.775,7.27,6.213,2.639,13.446,3.425,20.247,3.29,5.793-.025,11.911-1.292,16.667-4.173,5.217-2.853,11.005-6.613,17.177-6.023a6.677,6.677,0,0,1,4.352,2.014Z" transform="translate(-131.281 -150.155)" fill="#102e68"/>
          <path id="Path_4" data-name="Path 4" d="M288.943,178.3c1.047-1.051,1.851-3.173-.045-10.315-.853-3.216-3.435-12.943-8.893-19.475-12.119-14.506-44.288-20.282-63.181-3.177-12.579,11.389-13.617,27.8-13.746,32.477,1.941.9,5.947,3.662,9.639,1.57,5.707-3.233,9.185-10.487,15.343-13.777,12.219-8.324,28.54-6.461,39.159,3.4,3.825,3.278,6.348,7.742,11,9.711C281.475,180.007,286.227,181.025,288.943,178.3Z" transform="translate(-131.398 -87.24)" fill="#0964cf"/>
          <ellipse id="Ellipse_1" data-name="Ellipse 1" cx="23.825" cy="23.825" rx="23.825" ry="23.825" transform="translate(90.632)" fill="#feaa00"/>
          <ellipse id="Ellipse_2" data-name="Ellipse 2" cx="23.825" cy="23.825" rx="23.825" ry="23.825" transform="translate(166.255 0.203)" fill="#102e68"/>
          <path id="Path_5" data-name="Path 5" d="M395.53,168.989c-3.4-3.623,2.854-10.687,5.36-13.5a64.848,64.848,0,0,1,13.142-10.725c20.222-13.026,50.835-13.171,65.162,7.817,6.311,9.227,5.067,21.853-2.025,30.311-2.139,2.771-6.886,6.276-10.044,3.5-2.291-2.341-2.213-5.453-2.938-8.865A27.534,27.534,0,0,0,462,170.187c-9.942-18.684-35.775-7.868-51.785-2.454-4.046,1.246-11.056,4.181-14.653,1.289Z" transform="translate(-255.281 -87.837)" fill="#feaa00"/>
          <ellipse id="Ellipse_3" data-name="Ellipse 3" cx="23.825" cy="23.825" rx="23.825" ry="23.825" transform="translate(14.094 1.653)" fill="#0964cf"/>
          <path id="Path_6" data-name="Path 6" d="M87.751,173.1c3.4-3.623-2.854-10.687-5.36-13.5A64.867,64.867,0,0,0,69.25,148.871C49.028,135.846,18.415,135.7,4.088,156.688-2.223,165.916-.979,178.541,6.113,187c2.14,2.771,6.887,6.276,10.044,3.5,2.291-2.341,2.213-5.453,2.938-8.865a27.518,27.518,0,0,1,2.183-7.335c9.942-18.684,35.775-7.869,51.785-2.454,4.047,1.246,11.056,4.181,14.653,1.288Z" transform="translate(0 -90.495)" fill="#102e68"/>
        </g>
      </g>
    </g>
    <text id="Community_Link" data-name="Community Link" transform="translate(140 191.428)" font-size="31" font-family="VistaSansOTCE-Black, Vista Sans OTCE" font-weight="800"><tspan x="0" y="0">Community Link</tspan></text>
  </g>
</svg>
